<?xml version="1.0" encoding="utf-8"?>
<!-- Generator: Adobe Illustrator 17.1.0, SVG Export Plug-In . SVG Version: 6.00 Build 0)  -->
<!DOCTYPE svg PUBLIC "-//W3C//DTD SVG 1.1//EN" "http://www.w3.org/Graphics/SVG/1.1/DTD/svg11.dtd">
<svg version="1.1" id="Layer_1" xmlns="http://www.w3.org/2000/svg" xmlns:xlink="http://www.w3.org/1999/xlink" x="0px" y="0px"
	 viewBox="0 0 40 44.1" enable-background="new 0 0 40 44.1" xml:space="preserve">
<path id="jerry_can" fill="#FFFFFF" d="M23.1,20.9h-4.9c-0.4,0-0.8,0.4-0.8,0.8v2.1c0,0.4,0.4,0.8,0.8,0.8h4.9
	c0.4,0,0.8-0.4,0.8-0.8v-2.1C23.9,21.3,23.6,20.9,23.1,20.9z M31.2,9.9c-0.1-0.3-1.1-2.2-1.1-2.2s0.4-0.2,0.5-0.3
	c0.2-0.1,0.3-0.2,0.1-0.6c-0.2-0.5-0.5-0.3-0.5-0.3s-0.3,0.2-0.7,0.4c-0.6-0.9-1.4-1-1.7-1c-0.2,0-1,0-1.2,0c-0.2,0-0.5,0-0.6,0.2
	c-0.1,0.1-0.3,0.2-0.6,0.2c-0.3,0-8.3,0-8.3,0c-0.1,0-0.1,0-0.1-0.1c-0.6-0.3-1.2,0-1.3,0.1c-0.1,0.1-0.7,0.8-1,1.1
	c-0.3,0.4-0.6,0.4-0.8,0.5c0.1-0.2,0-0.3,0-0.3l-0.1-0.2L14,6.9l0.2-0.1l-0.1-0.2c0,0-0.1,0-0.3,0.1c-0.2,0.1-0.2,0.2-0.2,0.2
	c-0.1,0.3-0.3,0.3-0.3,0.3s-0.5-0.9-0.5-1c-0.1-0.1-0.2-0.5-1.8,0.4C9.4,7.4,9.8,7.8,9.8,7.8l0.5,1L10.2,9l0.4,0.8
	c0,0-0.1,0-0.4,0.3c-0.3,0.2-0.7,0.5-0.7,1.1V34c0,1.7,0.5,2.5,2.4,2.5h17.5c1.1,0,2.2-0.6,2.2-2.6V11.3
	C31.5,10.2,31.3,10.2,31.2,9.9z M18.6,8h5.8c0.5,0,0.9,0.4,0.9,0.9c0,0.5-0.4,0.9-0.9,0.9h-5.8c-0.5,0-0.9-0.4-0.9-0.9
	C17.7,8.4,18.1,8,18.6,8z M26,26c0,0,2,3.4,2.4,4.2c0.5,1-0.2,1.5-0.2,1.5s-1,0.5-1.5-0.4c-0.4-0.8-1.8-3.2-2.3-3.9
	c-0.6-1-0.9-1.3-1.7-1.3c-1.1,0-0.4,0-2,0h-0.1c-1.6,0-0.9,0-2,0c-0.8,0-1.1,0.3-1.7,1.3c-0.5,0.7-1.9,3.1-2.3,3.9
	c-0.5,0.9-1.5,0.4-1.5,0.4s-0.7-0.4-0.2-1.5c0.4-0.8,2.4-4.2,2.4-4.2s0.5-0.8,0.5-1.4v-1.7c0-0.2,0-0.3,0-0.3v-1.7
	c0-0.6-0.5-1.4-0.5-1.4s-2-3.4-2.4-4.2c-0.5-1,0.2-1.5,0.2-1.5s1-0.5,1.5,0.4c0.4,0.8,1.8,3.2,2.3,3.9c0.6,1,0.9,1.3,1.7,1.3
	c1.1,0,0.4,0,2,0h0.1c1.6,0,0.9,0,2,0c0.8,0,1.1-0.3,1.7-1.3c0.5-0.7,1.8-3.1,2.3-3.9c0.5-0.9,1.5-0.4,1.5-0.4s0.7,0.4,0.2,1.5
	C28,16,26,19.4,26,19.4s-0.5,0.8-0.5,1.4v1.7c0,0.2,0,0.3,0,0.3v1.7C25.5,25.2,26,26,26,26z"/>
</svg>
